<svg width="512" height="512" viewBox="0 0 512 512" fill="none" xmlns="http://www.w3.org/2000/svg">
<path d="M433.493 0L387.698 12.5156L310.613 33.28L260.551 46.9333L201.671 63.1467L27.8756 110.08L0 219.876L71.3956 291.271L125.724 345.6L176.924 293.831L176.356 228.124L277.902 126.578L297.529 145.92L289.564 200.249L318.578 229.262L372.907 221.298L392.249 240.924L290.702 342.187L224.142 341.049L172.942 392.249L214.187 434.062L292.124 512L402.489 485.262L416.142 434.062L432.64 373.191L468.48 239.218L484.409 180.338L511.716 78.7911L433.493 0Z" fill="#F72E5C"/>
</svg>
