<?xml version="1.0" encoding="UTF-8" standalone="no"?>
<!DOCTYPE svg PUBLIC "-//W3C//DTD SVG 1.1//EN" "http://www.w3.org/Graphics/SVG/1.1/DTD/svg11.dtd">
<svg width="100%" height="100%" viewBox="0 0 376 44" version="1.1" xmlns="http://www.w3.org/2000/svg" xmlns:xlink="http://www.w3.org/1999/xlink" xml:space="preserve" xmlns:serif="http://www.serif.com/" style="fill-rule:evenodd;clip-rule:evenodd;stroke-linejoin:round;stroke-miterlimit:2;">
    <g transform="matrix(1,0,0,1,-0.000653678,-107.368)">
        <g id="Horizontal-Curves" serif:id="Horizontal Curves" transform="matrix(2.66535,0,0,1,0.000653678,107.368)">
            <rect x="0" y="0" width="141" height="44" style="fill:none;"/>
            <g transform="matrix(0.375185,0,0,1,-722.849,-28.6544)">
                <g transform="matrix(0.794962,0,0,0.794963,1901.61,28.6544)">
                    <g>
                        <path d="M78.1,0L73.181,1.344L64.9,3.575L59.522,5.042L53.197,6.783L34.497,11.825L31.503,23.619L39.172,31.289L44.978,37.125L50.478,31.564L50.447,24.506L61.356,13.597L63.464,15.675L62.608,21.511L65.725,24.628L71.561,23.772L73.639,25.881L62.731,36.758L55.642,36.728L50.142,42.228L54.603,46.719L62.975,55.092L74.831,52.219L76.297,46.719L78.07,40.181L81.92,25.789L83.631,19.464L86.564,8.556L78.1,0Z" style="fill:rgb(247,46,92);fill-rule:nonzero;"/>
                    </g>
                </g>
                <g transform="matrix(3.60619,0,0,0.85974,1799.92,29.4271)">
                    <rect x="50.285" y="3.374" width="1.211" height="34.196" style="fill:rgb(247,46,92);fill-rule:nonzero;"/>
                    <path d="M58.137,22.244L58.137,37.571L56.926,37.571L56.926,23.509C56.926,22.416 56.863,21.422 56.735,20.528C56.608,19.635 56.438,18.923 56.226,18.392C56.014,17.862 55.777,17.597 55.517,17.597C55.258,17.597 55.022,17.862 54.808,18.392C54.594,18.923 54.423,19.635 54.297,20.528C54.17,21.422 54.107,22.416 54.107,23.509L54.107,37.571L52.896,37.571L52.894,13.145L54.105,13.145L54.107,15.737C54.308,14.728 54.556,13.93 54.852,13.342C55.147,12.755 55.465,12.461 55.805,12.461C56.236,12.461 56.627,12.9 56.98,13.778C57.333,14.657 57.614,15.836 57.823,17.316C58.033,18.795 58.137,20.438 58.137,22.244Z" style="fill:rgb(247,46,92);fill-rule:nonzero;"/>
                    <path d="M60.875,38.025C60.566,37.957 60.267,37.703 59.978,37.261C59.688,36.819 59.433,36.217 59.213,35.456C58.993,34.695 58.828,33.804 58.72,32.783L59.749,30.932C59.801,31.373 59.89,31.803 60.017,32.222C60.144,32.64 60.292,32.986 60.463,33.258C60.633,33.531 60.812,33.667 60.999,33.667C61.178,33.667 61.347,33.555 61.506,33.329C61.665,33.104 61.794,32.767 61.894,32.319C61.995,31.871 62.045,31.322 62.045,30.671C62.045,29.962 61.988,29.41 61.874,29.015C61.76,28.62 61.617,28.313 61.446,28.095C61.276,27.876 61.105,27.674 60.934,27.487C60.551,27.119 60.202,26.624 59.886,26.002C59.571,25.38 59.32,24.577 59.132,23.592C58.945,22.608 58.851,21.395 58.851,19.953C58.851,18.388 58.952,17.035 59.155,15.893C59.357,14.752 59.622,13.87 59.95,13.248C60.277,12.625 60.629,12.314 61.004,12.314C61.469,12.314 61.896,12.729 62.285,13.557C62.673,14.386 62.971,15.523 63.177,16.97L62.214,19.364C62.154,18.877 62.066,18.439 61.95,18.05C61.834,17.662 61.703,17.349 61.555,17.11C61.407,16.871 61.255,16.737 61.099,16.706C60.898,16.676 60.714,16.772 60.545,16.992C60.377,17.213 60.243,17.558 60.141,18.028C60.04,18.498 59.99,19.098 59.99,19.828C59.99,20.543 60.049,21.08 60.169,21.437C60.289,21.793 60.441,22.075 60.625,22.28C60.809,22.485 60.998,22.72 61.193,22.984C61.538,23.449 61.863,24.011 62.167,24.668C62.471,25.326 62.716,26.134 62.902,27.092C63.088,28.05 63.177,29.22 63.17,30.601C63.17,32.136 63.06,33.48 62.841,34.634C62.621,35.787 62.337,36.665 61.988,37.267C61.64,37.869 61.268,38.122 60.875,38.025Z" style="fill:rgb(247,46,92);fill-rule:nonzero;"/>
                    <path d="M65.203,49.784L63.992,49.784L63.992,13.145L65.203,13.145L65.203,16.747C65.397,15.491 65.645,14.471 65.948,13.686C66.252,12.902 66.608,12.51 67.019,12.51C67.444,12.51 67.841,12.844 68.211,13.511C68.581,14.179 68.906,15.103 69.186,16.284C69.467,17.464 69.686,18.828 69.844,20.375C70.003,21.922 70.082,23.583 70.082,25.358C70.082,27.133 70.003,28.802 69.844,30.365C69.686,31.928 69.467,33.3 69.186,34.481C68.906,35.662 68.581,36.586 68.211,37.253C67.841,37.921 67.444,38.255 67.019,38.255C66.608,38.255 66.252,37.861 65.948,37.073C65.645,36.285 65.397,35.267 65.203,34.017L65.203,49.784ZM67.006,17.409C66.671,17.409 66.375,17.768 66.119,18.484C65.862,19.201 65.662,20.158 65.519,21.356C65.376,22.553 65.304,23.887 65.304,25.358C65.304,26.817 65.375,28.149 65.518,29.356C65.66,30.564 65.859,31.526 66.115,32.244C66.372,32.961 66.668,33.32 67.006,33.32C67.34,33.32 67.647,32.966 67.927,32.258C68.206,31.549 68.43,30.594 68.598,29.392C68.765,28.189 68.849,26.845 68.849,25.358C68.849,23.906 68.767,22.579 68.601,21.377C68.435,20.174 68.213,19.213 67.935,18.491C67.657,17.77 67.347,17.409 67.006,17.409Z" style="fill:rgb(247,46,92);fill-rule:nonzero;"/>
                    <path d="M73.401,38.206C72.866,38.206 72.377,37.628 71.937,36.472C71.496,35.316 71.145,33.763 70.883,31.813C70.621,29.864 70.49,27.709 70.49,25.348C70.49,23.563 70.565,21.893 70.717,20.338C70.868,18.783 71.077,17.415 71.343,16.235C71.609,15.054 71.918,14.13 72.272,13.462C72.625,12.795 73.001,12.461 73.401,12.461C73.847,12.461 74.256,12.849 74.629,13.624C75.002,14.399 75.32,15.466 75.584,16.825C75.848,18.184 76.042,19.748 76.167,21.516C76.292,23.283 76.329,25.155 76.277,27.13L71.787,27.13C71.837,28.262 71.935,29.277 72.082,30.177C72.229,31.076 72.416,31.789 72.641,32.314C72.867,32.839 73.12,33.109 73.401,33.126C73.697,33.133 73.966,32.823 74.207,32.198C74.449,31.572 74.648,30.716 74.803,29.629L76.036,30.829C75.801,32.995 75.449,34.766 74.979,36.142C74.51,37.518 73.984,38.206 73.401,38.206ZM71.746,23.259L75.055,23.259C75.017,22.091 74.919,21.03 74.762,20.075C74.605,19.121 74.409,18.361 74.173,17.794C73.937,17.227 73.68,16.943 73.401,16.943C73.124,16.943 72.869,17.222 72.635,17.78C72.401,18.337 72.207,19.093 72.052,20.047C71.898,21.001 71.796,22.072 71.746,23.259Z" style="fill:rgb(247,46,92);fill-rule:nonzero;"/>
                    <path d="M82.054,37.571L80.658,37.571L79.226,27.216L78.289,31.901L78.289,37.571L77.077,37.571L77.077,0.932L78.289,0.932L78.289,24.003L80.457,13.145L82.04,13.145L80.054,23.082L82.054,37.571Z" style="fill:rgb(247,46,92);fill-rule:nonzero;"/>
                    <path d="M85.914,18.225L84.692,18.225L84.689,37.571L83.478,37.571L83.481,18.225L82.553,18.225L82.553,13.145L83.481,13.145L83.478,5.475L84.689,5.475L84.692,13.145L85.914,13.145L85.914,18.225Z" style="fill:rgb(247,46,92);fill-rule:nonzero;"/>
                    <path d="M89.189,38.206C88.653,38.206 88.165,37.628 87.724,36.472C87.284,35.316 86.932,33.764 86.67,31.819C86.408,29.873 86.277,27.719 86.277,25.358C86.277,23.567 86.353,21.893 86.504,20.338C86.656,18.783 86.864,17.415 87.13,16.235C87.396,15.054 87.706,14.13 88.059,13.462C88.412,12.795 88.789,12.461 89.189,12.461C89.724,12.461 90.213,13.039 90.653,14.195C91.094,15.351 91.445,16.906 91.707,18.861C91.969,20.815 92.1,22.98 92.1,25.358C92.1,27.133 92.025,28.794 91.873,30.341C91.722,31.888 91.513,33.252 91.247,34.432C90.981,35.613 90.673,36.537 90.321,37.204C89.97,37.872 89.592,38.206 89.189,38.206ZM89.189,33.126C89.51,33.126 89.8,32.768 90.057,32.052C90.314,31.337 90.517,30.389 90.666,29.209C90.815,28.028 90.889,26.745 90.889,25.358C90.889,23.939 90.813,22.635 90.66,21.446C90.508,20.257 90.303,19.31 90.046,18.602C89.789,17.895 89.503,17.541 89.189,17.541C88.869,17.541 88.58,17.901 88.323,18.62C88.066,19.339 87.863,20.29 87.713,21.474C87.563,22.658 87.488,23.953 87.488,25.358C87.488,26.812 87.566,28.125 87.72,29.298C87.875,30.47 88.082,31.401 88.34,32.091C88.598,32.781 88.881,33.126 89.189,33.126Z" style="fill:rgb(247,46,92);fill-rule:nonzero;"/>
                    <path d="M92.918,37.571L92.916,13.145L94.127,13.145L94.129,15.737C94.33,14.728 94.578,13.93 94.874,13.342C95.169,12.755 95.487,12.461 95.827,12.461C96.046,12.461 96.261,12.587 96.474,12.838L95.992,17.945C95.84,17.713 95.689,17.597 95.539,17.597C95.28,17.597 95.044,17.862 94.83,18.392C94.616,18.923 94.445,19.635 94.319,20.528C94.192,21.422 94.129,22.416 94.129,23.509L94.129,37.571L92.918,37.571Z" style="fill:rgb(247,46,92);fill-rule:nonzero;"/>
                    <path d="M103.691,38.206C103.105,38.206 102.558,37.744 102.051,36.821C101.545,35.897 101.102,34.617 100.725,32.981C100.347,31.344 100.052,29.453 99.84,27.309C99.627,25.164 99.521,22.874 99.521,20.438C99.521,17.891 99.634,15.543 99.861,13.393C100.087,11.244 100.396,9.374 100.788,7.784C101.18,6.194 101.627,4.961 102.13,4.086C102.633,3.212 103.161,2.774 103.714,2.774C104.338,2.774 104.939,3.361 105.515,4.533C106.092,5.706 106.595,7.465 107.022,9.809L105.897,12.259C105.607,10.798 105.269,9.693 104.883,8.944C104.498,8.194 104.103,7.82 103.7,7.82C103.309,7.82 102.938,8.14 102.587,8.781C102.236,9.421 101.925,10.318 101.654,11.471C101.383,12.624 101.17,13.97 101.014,15.509C100.859,17.049 100.781,18.722 100.781,20.528C100.781,22.27 100.857,23.904 101.009,25.429C101.161,26.955 101.371,28.293 101.639,29.445C101.907,30.597 102.218,31.498 102.572,32.149C102.926,32.8 103.305,33.126 103.709,33.126C104.006,33.126 104.292,32.93 104.566,32.539C104.84,32.149 105.095,31.59 105.332,30.865C105.568,30.139 105.775,29.272 105.953,28.262C106.131,27.252 106.272,26.129 106.376,24.891L104.576,24.891L104.576,20.409L107.855,20.409C107.861,22.853 107.758,25.149 107.543,27.296C107.329,29.444 107.03,31.336 106.648,32.974C106.266,34.611 105.822,35.892 105.318,36.818C104.814,37.743 104.272,38.206 103.691,38.206Z" style="fill:rgb(247,46,92);fill-rule:nonzero;"/>
                    <path d="M113.352,13.145L114.612,13.145L114.612,37.571L113.349,37.571L113.296,34.024C113.119,35.273 112.879,36.283 112.578,37.052C112.277,37.821 111.92,38.206 111.508,38.206C111.061,38.206 110.642,37.866 110.252,37.187C109.862,36.508 109.518,35.569 109.222,34.37C108.925,33.17 108.694,31.784 108.528,30.21C108.361,28.637 108.278,26.947 108.278,25.142C108.278,23.39 108.359,21.748 108.519,20.215C108.68,18.682 108.904,17.334 109.191,16.172C109.478,15.01 109.811,14.101 110.189,13.445C110.567,12.789 110.972,12.461 111.405,12.461C111.843,12.461 112.23,12.862 112.567,13.665C112.904,14.468 113.183,15.502 113.405,16.768L113.352,13.145ZM111.477,33.306C111.832,33.306 112.143,32.95 112.409,32.237C112.675,31.524 112.882,30.564 113.03,29.356C113.178,28.149 113.252,26.817 113.252,25.358C113.252,23.871 113.177,22.527 113.028,21.324C112.879,20.122 112.672,19.166 112.406,18.458C112.139,17.75 111.83,17.395 111.477,17.395C111.125,17.395 110.804,17.752 110.514,18.465C110.224,19.178 109.994,20.138 109.824,21.345C109.654,22.552 109.569,23.89 109.569,25.358C109.569,26.835 109.656,28.175 109.83,29.378C110.005,30.58 110.237,31.535 110.527,32.244C110.817,32.952 111.134,33.306 111.477,33.306Z" style="fill:rgb(247,46,92);fill-rule:nonzero;"/>
                    <path d="M120.074,0.932L121.334,0.932L121.334,37.571L120.074,37.571L120.074,33.989C119.875,35.248 119.615,36.266 119.296,37.042C118.977,37.818 118.604,38.206 118.177,38.206C117.737,38.206 117.325,37.872 116.942,37.204C116.558,36.537 116.22,35.613 115.927,34.432C115.635,33.252 115.406,31.888 115.24,30.341C115.075,28.794 114.992,27.133 114.992,25.358C114.992,23.583 115.075,21.92 115.24,20.368C115.406,18.816 115.635,17.45 115.927,16.269C116.22,15.089 116.558,14.165 116.942,13.497C117.325,12.83 117.737,12.496 118.177,12.496C118.604,12.496 118.977,12.882 119.296,13.655C119.615,14.427 119.875,15.442 120.074,16.698L120.074,0.932ZM118.191,33.306C118.546,33.306 118.857,32.95 119.123,32.237C119.389,31.524 119.596,30.564 119.744,29.356C119.892,28.149 119.966,26.817 119.966,25.358C119.966,23.871 119.891,22.527 119.742,21.324C119.593,20.122 119.386,19.166 119.119,18.458C118.853,17.75 118.544,17.395 118.191,17.395C117.839,17.395 117.518,17.752 117.229,18.465C116.941,19.178 116.711,20.138 116.539,21.345C116.368,22.552 116.282,23.89 116.282,25.358C116.282,26.835 116.37,28.175 116.544,29.378C116.719,30.58 116.951,31.535 117.241,32.244C117.531,32.952 117.847,33.306 118.191,33.306Z" style="fill:rgb(247,46,92);fill-rule:nonzero;"/>
                    <path d="M127.002,13.145L128.261,13.145L128.261,38.194C128.261,39.882 128.174,41.432 128,42.845C127.825,44.258 127.589,45.483 127.289,46.521C126.99,47.558 126.648,48.362 126.263,48.93C125.878,49.499 125.476,49.784 125.055,49.784C124.631,49.784 124.224,49.421 123.832,48.696C123.441,47.971 123.097,46.99 122.8,45.752C122.504,44.514 122.283,43.116 122.138,41.56L123.292,39.444C123.373,40.458 123.503,41.357 123.683,42.142C123.863,42.926 124.073,43.544 124.313,43.994C124.553,44.444 124.8,44.669 125.055,44.669C125.304,44.669 125.545,44.511 125.777,44.196C126.009,43.881 126.218,43.438 126.402,42.867C126.587,42.296 126.733,41.614 126.841,40.82C126.948,40.027 127.002,39.151 127.002,38.194L127.002,34.073C126.804,35.306 126.549,36.303 126.238,37.064C125.927,37.825 125.567,38.206 125.159,38.206C124.728,38.206 124.323,37.872 123.946,37.204C123.568,36.537 123.236,35.613 122.949,34.432C122.662,33.252 122.437,31.888 122.275,30.341C122.113,28.794 122.032,27.133 122.032,25.358C122.032,23.583 122.113,21.92 122.275,20.368C122.437,18.816 122.662,17.45 122.949,16.269C123.236,15.089 123.568,14.165 123.946,13.497C124.323,12.83 124.728,12.496 125.159,12.496C125.567,12.496 125.927,12.874 126.238,13.63C126.549,14.387 126.804,15.386 127.002,16.629L127.002,13.145ZM125.172,33.306C125.52,33.306 125.825,32.943 126.088,32.216C126.351,31.489 126.556,30.522 126.702,29.314C126.849,28.107 126.922,26.789 126.922,25.358C126.922,23.899 126.849,22.569 126.701,21.366C126.553,20.164 126.347,19.201 126.083,18.479C125.819,17.757 125.516,17.395 125.172,17.395C124.831,17.395 124.52,17.752 124.239,18.465C123.959,19.178 123.736,20.138 123.571,21.345C123.405,22.552 123.323,23.89 123.323,25.358C123.323,26.826 123.407,28.161 123.574,29.364C123.742,30.566 123.966,31.524 124.246,32.237C124.527,32.95 124.836,33.306 125.172,33.306Z" style="fill:rgb(247,46,92);fill-rule:nonzero;"/>
                    <path d="M131.97,38.206C131.413,38.206 130.905,37.628 130.447,36.472C129.989,35.316 129.623,33.763 129.351,31.813C129.078,29.864 128.942,27.709 128.942,25.348C128.942,23.563 129.021,21.893 129.178,20.338C129.336,18.783 129.553,17.415 129.829,16.235C130.106,15.054 130.428,14.13 130.795,13.462C131.163,12.795 131.554,12.461 131.97,12.461C132.434,12.461 132.86,12.849 133.247,13.624C133.635,14.399 133.966,15.466 134.24,16.825C134.515,18.184 134.717,19.748 134.846,21.516C134.976,23.283 135.015,25.155 134.961,27.13L130.291,27.13C130.343,28.262 130.446,29.277 130.599,30.177C130.751,31.076 130.945,31.789 131.18,32.314C131.414,32.839 131.678,33.109 131.97,33.126C132.278,33.133 132.557,32.823 132.809,32.198C133.06,31.572 133.266,30.716 133.428,29.629L134.71,30.829C134.466,32.995 134.1,34.766 133.611,36.142C133.123,37.518 132.576,38.206 131.97,38.206ZM130.249,23.259L133.69,23.259C133.65,22.091 133.548,21.03 133.386,20.075C133.223,19.121 133.018,18.361 132.773,17.794C132.527,17.227 132.26,16.943 131.97,16.943C131.682,16.943 131.417,17.222 131.174,17.78C130.93,18.337 130.728,19.093 130.567,20.047C130.406,21.001 130.3,22.072 130.249,23.259Z" style="fill:rgb(247,46,92);fill-rule:nonzero;"/>
                    <path d="M138.765,18.225L137.495,18.225L137.491,37.571L136.232,37.571L136.235,18.225L135.27,18.225L135.27,13.145L136.235,13.145L136.232,5.475L137.491,5.475L137.495,13.145L138.765,13.145L138.765,18.225Z" style="fill:rgb(247,46,92);fill-rule:nonzero;"/>
                </g>
            </g>
        </g>
    </g>
</svg>
