<?xml version="1.0" encoding="UTF-8" standalone="no"?>
<!DOCTYPE svg PUBLIC "-//W3C//DTD SVG 1.1//EN" "http://www.w3.org/Graphics/SVG/1.1/DTD/svg11.dtd">
<svg width="100%" height="100%" viewBox="0 0 141 44" version="1.1" xmlns="http://www.w3.org/2000/svg" xmlns:xlink="http://www.w3.org/1999/xlink" xml:space="preserve" xmlns:serif="http://www.serif.com/" style="fill-rule:evenodd;clip-rule:evenodd;stroke-linejoin:round;stroke-miterlimit:2;">
    <g transform="matrix(1,0,0,1,-150.526,-0.118563)">
        <g id="Compact-Curves" serif:id="Compact Curves" transform="matrix(1,0,0,1,150.526,0.118563)">
            <rect x="0" y="0" width="141" height="44" style="fill:none;"/>
            <g transform="matrix(1,0,0,1,-1926.65,-28.6544)">
                <g transform="matrix(0.794962,0,0,0.794963,1901.61,28.6544)">
                    <g>
                        <path d="M78.1,0L73.181,1.344L64.9,3.575L59.522,5.042L53.197,6.783L34.497,11.825L31.503,23.619L39.172,31.289L44.978,37.125L50.478,31.564L50.447,24.506L61.356,13.597L63.464,15.675L62.608,21.511L65.725,24.628L71.561,23.772L73.639,25.881L62.731,36.758L55.642,36.728L50.142,42.228L54.603,46.719L62.975,55.092L74.831,52.219L76.297,46.719L78.07,40.181L81.92,25.789L83.631,19.464L86.564,8.556L78.1,0Z" style="fill:rgb(247,46,92);fill-rule:nonzero;"/>
                    </g>
                </g>
                <g transform="matrix(1,0,0,1,1928.69,27.7225)">
                    <g transform="matrix(22,0,0,22,49.4114,17.4319)">
                        <rect x="0.075" y="-0.7" width="0.104" height="0.7" style="fill:rgb(247,46,92);fill-rule:nonzero;"/>
                    </g>
                    <g transform="matrix(22,0,0,22,54.6692,17.4319)">
                        <path d="M0.51,-0.314L0.51,-0L0.406,-0L0.406,-0.288C0.406,-0.31 0.401,-0.331 0.39,-0.349C0.379,-0.367 0.364,-0.382 0.346,-0.393C0.328,-0.403 0.308,-0.409 0.285,-0.409C0.263,-0.409 0.243,-0.403 0.224,-0.393C0.206,-0.382 0.191,-0.367 0.18,-0.349C0.17,-0.331 0.164,-0.31 0.164,-0.288L0.164,-0L0.06,-0L0.06,-0.5L0.164,-0.5L0.164,-0.447C0.181,-0.468 0.203,-0.484 0.228,-0.496C0.253,-0.508 0.281,-0.514 0.31,-0.514C0.347,-0.514 0.381,-0.505 0.411,-0.487C0.441,-0.469 0.465,-0.445 0.483,-0.415C0.501,-0.384 0.51,-0.351 0.51,-0.314Z" style="fill:rgb(247,46,92);fill-rule:nonzero;"/>
                    </g>
                    <g transform="matrix(22,0,0,22,66.4444,17.4319)">
                        <path d="M0.21,0.009C0.184,0.008 0.158,0.003 0.133,-0.006C0.108,-0.015 0.086,-0.028 0.067,-0.043C0.048,-0.059 0.034,-0.077 0.025,-0.098L0.113,-0.136C0.118,-0.127 0.125,-0.118 0.136,-0.109C0.147,-0.101 0.16,-0.094 0.175,-0.088C0.189,-0.083 0.205,-0.08 0.221,-0.08C0.236,-0.08 0.251,-0.082 0.264,-0.087C0.278,-0.091 0.289,-0.098 0.298,-0.108C0.306,-0.117 0.311,-0.128 0.311,-0.141C0.311,-0.156 0.306,-0.167 0.296,-0.175C0.286,-0.183 0.274,-0.19 0.259,-0.194C0.244,-0.198 0.23,-0.203 0.215,-0.206C0.182,-0.214 0.152,-0.224 0.125,-0.237C0.098,-0.25 0.077,-0.266 0.06,-0.286C0.044,-0.306 0.036,-0.331 0.036,-0.361C0.036,-0.393 0.045,-0.42 0.062,-0.444C0.08,-0.467 0.102,-0.485 0.131,-0.498C0.159,-0.511 0.189,-0.517 0.221,-0.517C0.261,-0.517 0.298,-0.509 0.331,-0.492C0.364,-0.475 0.39,-0.451 0.408,-0.422L0.325,-0.373C0.32,-0.383 0.312,-0.392 0.302,-0.4C0.292,-0.408 0.281,-0.414 0.268,-0.419C0.256,-0.424 0.243,-0.426 0.229,-0.427C0.212,-0.428 0.196,-0.426 0.182,-0.421C0.167,-0.417 0.156,-0.41 0.147,-0.4C0.138,-0.39 0.134,-0.378 0.134,-0.363C0.134,-0.349 0.139,-0.338 0.149,-0.33C0.16,-0.323 0.173,-0.317 0.189,-0.313C0.204,-0.309 0.221,-0.304 0.237,-0.299C0.267,-0.289 0.295,-0.278 0.321,-0.264C0.347,-0.251 0.368,-0.234 0.384,-0.215C0.4,-0.195 0.408,-0.171 0.407,-0.143C0.407,-0.111 0.398,-0.084 0.379,-0.06C0.36,-0.037 0.336,-0.019 0.306,-0.006C0.276,0.006 0.244,0.011 0.21,0.009Z" style="fill:rgb(247,46,92);fill-rule:nonzero;"/>
                    </g>
                    <g transform="matrix(22,0,0,22,75.6335,17.4319)">
                        <path d="M0.164,0.25L0.06,0.25L0.06,-0.5L0.164,-0.5L0.164,-0.426C0.181,-0.452 0.202,-0.473 0.228,-0.489C0.254,-0.505 0.285,-0.513 0.32,-0.513C0.356,-0.513 0.39,-0.506 0.422,-0.493C0.454,-0.479 0.482,-0.46 0.506,-0.436C0.53,-0.412 0.549,-0.384 0.563,-0.352C0.576,-0.32 0.583,-0.286 0.583,-0.25C0.583,-0.214 0.576,-0.18 0.563,-0.148C0.549,-0.116 0.53,-0.087 0.506,-0.063C0.482,-0.039 0.454,-0.02 0.422,-0.007C0.39,0.007 0.356,0.014 0.32,0.014C0.285,0.014 0.254,0.006 0.228,-0.01C0.202,-0.026 0.181,-0.047 0.164,-0.073L0.164,0.25ZM0.319,-0.413C0.29,-0.413 0.265,-0.405 0.243,-0.391C0.221,-0.376 0.203,-0.356 0.191,-0.332C0.179,-0.307 0.173,-0.28 0.173,-0.25C0.173,-0.22 0.179,-0.193 0.191,-0.168C0.203,-0.143 0.22,-0.124 0.242,-0.109C0.264,-0.094 0.29,-0.087 0.319,-0.087C0.347,-0.087 0.374,-0.094 0.398,-0.109C0.422,-0.123 0.441,-0.143 0.455,-0.167C0.47,-0.192 0.477,-0.22 0.477,-0.25C0.477,-0.28 0.47,-0.307 0.456,-0.331C0.442,-0.356 0.422,-0.376 0.399,-0.391C0.375,-0.405 0.348,-0.413 0.319,-0.413Z" style="fill:rgb(247,46,92);fill-rule:nonzero;"/>
                    </g>
                    <g transform="matrix(22,0,0,22,88.5673,17.4319)">
                        <path d="M0.28,0.013C0.234,0.013 0.192,0.001 0.154,-0.023C0.116,-0.046 0.086,-0.078 0.064,-0.118C0.041,-0.158 0.03,-0.202 0.03,-0.25C0.03,-0.287 0.037,-0.321 0.05,-0.353C0.063,-0.385 0.08,-0.413 0.103,-0.437C0.126,-0.461 0.153,-0.48 0.183,-0.494C0.213,-0.507 0.246,-0.514 0.28,-0.514C0.318,-0.514 0.353,-0.506 0.385,-0.49C0.417,-0.474 0.445,-0.452 0.467,-0.425C0.49,-0.397 0.507,-0.365 0.517,-0.329C0.528,-0.292 0.531,-0.254 0.527,-0.214L0.141,-0.214C0.146,-0.191 0.154,-0.17 0.167,-0.151C0.179,-0.133 0.195,-0.118 0.215,-0.108C0.234,-0.097 0.256,-0.091 0.28,-0.091C0.305,-0.091 0.328,-0.097 0.349,-0.11C0.37,-0.123 0.387,-0.14 0.4,-0.163L0.506,-0.138C0.486,-0.094 0.456,-0.057 0.416,-0.029C0.375,-0.001 0.33,0.013 0.28,0.013ZM0.138,-0.293L0.422,-0.293C0.419,-0.317 0.41,-0.339 0.397,-0.358C0.383,-0.378 0.367,-0.393 0.346,-0.405C0.326,-0.416 0.304,-0.422 0.28,-0.422C0.256,-0.422 0.234,-0.417 0.214,-0.405C0.194,-0.394 0.177,-0.378 0.164,-0.359C0.151,-0.339 0.142,-0.317 0.138,-0.293Z" style="fill:rgb(247,46,92);fill-rule:nonzero;"/>
                    </g>
                    <g transform="matrix(22,0,0,22,100.351,17.4319)">
                        <path d="M0.487,-0L0.367,-0L0.244,-0.212L0.164,-0.116L0.164,-0L0.06,-0L0.06,-0.75L0.164,-0.75L0.164,-0.278L0.35,-0.5L0.486,-0.5L0.316,-0.297L0.487,-0Z" style="fill:rgb(247,46,92);fill-rule:nonzero;"/>
                    </g>
                    <g transform="matrix(22,0,0,22,111.239,17.4319)">
                        <path d="M0.324,-0.396L0.219,-0.396L0.219,-0L0.115,-0L0.115,-0.396L0.035,-0.396L0.035,-0.5L0.115,-0.5L0.115,-0.657L0.219,-0.657L0.219,-0.5L0.324,-0.5L0.324,-0.396Z" style="fill:rgb(247,46,92);fill-rule:nonzero;"/>
                    </g>
                    <g transform="matrix(22,0,0,22,118.389,17.4319)">
                        <path d="M0.28,0.013C0.234,0.013 0.192,0.001 0.154,-0.023C0.116,-0.046 0.086,-0.078 0.064,-0.118C0.041,-0.158 0.03,-0.202 0.03,-0.25C0.03,-0.287 0.037,-0.321 0.05,-0.353C0.063,-0.385 0.08,-0.413 0.103,-0.437C0.126,-0.461 0.153,-0.48 0.183,-0.494C0.213,-0.507 0.246,-0.514 0.28,-0.514C0.326,-0.514 0.368,-0.502 0.406,-0.479C0.444,-0.455 0.474,-0.423 0.496,-0.383C0.519,-0.343 0.53,-0.299 0.53,-0.25C0.53,-0.214 0.524,-0.18 0.511,-0.148C0.498,-0.116 0.48,-0.088 0.457,-0.064C0.434,-0.04 0.407,-0.021 0.377,-0.008C0.347,0.006 0.315,0.013 0.28,0.013ZM0.28,-0.091C0.308,-0.091 0.332,-0.098 0.355,-0.113C0.377,-0.128 0.394,-0.147 0.407,-0.171C0.42,-0.195 0.426,-0.222 0.426,-0.25C0.426,-0.279 0.419,-0.306 0.406,-0.33C0.393,-0.354 0.376,-0.374 0.354,-0.388C0.332,-0.403 0.307,-0.41 0.28,-0.41C0.253,-0.41 0.228,-0.403 0.206,-0.388C0.184,-0.373 0.166,-0.354 0.153,-0.33C0.14,-0.305 0.134,-0.279 0.134,-0.25C0.134,-0.22 0.141,-0.193 0.154,-0.169C0.167,-0.145 0.185,-0.126 0.207,-0.112C0.229,-0.098 0.254,-0.091 0.28,-0.091Z" style="fill:rgb(247,46,92);fill-rule:nonzero;"/>
                    </g>
                    <g transform="matrix(22,0,0,22,130.269,17.4319)">
                        <path d="M0.06,-0L0.06,-0.5L0.164,-0.5L0.164,-0.447C0.181,-0.468 0.203,-0.484 0.228,-0.496C0.253,-0.508 0.281,-0.514 0.31,-0.514C0.329,-0.514 0.347,-0.511 0.366,-0.506L0.324,-0.402C0.311,-0.406 0.298,-0.409 0.285,-0.409C0.263,-0.409 0.243,-0.403 0.224,-0.393C0.206,-0.382 0.191,-0.367 0.18,-0.349C0.17,-0.331 0.164,-0.31 0.164,-0.288L0.164,-0L0.06,-0Z" style="fill:rgb(247,46,92);fill-rule:nonzero;"/>
                    </g>
                    <g transform="matrix(22,0,0,22,138.531,17.4319)">
                    </g>
                    <g transform="matrix(1.04,0,0,1,-1.97645,0)">
                        <g transform="matrix(22,0,0,22,49.4114,39.4319)">
                            <path d="M0.384,0.013C0.336,0.013 0.291,0.004 0.249,-0.015C0.207,-0.034 0.171,-0.06 0.139,-0.094C0.108,-0.127 0.084,-0.166 0.066,-0.21C0.049,-0.254 0.04,-0.301 0.04,-0.351C0.04,-0.403 0.049,-0.451 0.068,-0.495C0.087,-0.539 0.112,-0.577 0.145,-0.61C0.177,-0.642 0.214,-0.668 0.255,-0.685C0.297,-0.703 0.34,-0.712 0.386,-0.712C0.438,-0.712 0.487,-0.7 0.535,-0.676C0.583,-0.652 0.624,-0.616 0.659,-0.568L0.566,-0.518C0.542,-0.548 0.515,-0.571 0.483,-0.586C0.451,-0.601 0.418,-0.609 0.385,-0.609C0.353,-0.609 0.322,-0.602 0.293,-0.589C0.264,-0.576 0.238,-0.558 0.216,-0.534C0.194,-0.511 0.176,-0.483 0.163,-0.452C0.15,-0.42 0.144,-0.386 0.144,-0.349C0.144,-0.313 0.15,-0.28 0.163,-0.249C0.175,-0.217 0.193,-0.19 0.215,-0.166C0.237,-0.143 0.263,-0.124 0.292,-0.111C0.321,-0.098 0.352,-0.091 0.386,-0.091C0.41,-0.091 0.434,-0.095 0.456,-0.103C0.479,-0.111 0.5,-0.122 0.52,-0.137C0.539,-0.152 0.556,-0.17 0.571,-0.191C0.586,-0.211 0.597,-0.234 0.606,-0.26L0.457,-0.26L0.457,-0.351L0.728,-0.351C0.729,-0.301 0.72,-0.254 0.702,-0.21C0.685,-0.166 0.66,-0.128 0.628,-0.094C0.597,-0.061 0.56,-0.034 0.519,-0.015C0.477,0.004 0.432,0.013 0.384,0.013Z" style="fill:rgb(247,46,92);fill-rule:nonzero;"/>
                        </g>
                        <g transform="matrix(22,0,0,22,65.5365,39.4319)">
                            <path d="M0.449,-0.5L0.553,-0.5L0.553,-0L0.449,-0L0.444,-0.073C0.43,-0.047 0.41,-0.026 0.385,-0.011C0.36,0.005 0.331,0.013 0.297,0.013C0.26,0.013 0.225,0.006 0.193,-0.008C0.161,-0.022 0.132,-0.041 0.108,-0.066C0.083,-0.09 0.064,-0.118 0.051,-0.151C0.037,-0.183 0.03,-0.217 0.03,-0.254C0.03,-0.29 0.037,-0.324 0.05,-0.355C0.063,-0.387 0.082,-0.414 0.105,-0.438C0.129,-0.462 0.157,-0.48 0.188,-0.494C0.219,-0.507 0.252,-0.514 0.288,-0.514C0.324,-0.514 0.356,-0.506 0.384,-0.489C0.412,-0.473 0.435,-0.452 0.453,-0.426L0.449,-0.5ZM0.294,-0.087C0.323,-0.087 0.349,-0.095 0.371,-0.109C0.393,-0.124 0.41,-0.143 0.422,-0.168C0.435,-0.193 0.441,-0.22 0.441,-0.25C0.441,-0.28 0.434,-0.308 0.422,-0.333C0.41,-0.357 0.393,-0.377 0.371,-0.391C0.349,-0.406 0.323,-0.413 0.294,-0.413C0.265,-0.413 0.239,-0.406 0.215,-0.391C0.191,-0.377 0.172,-0.357 0.158,-0.332C0.144,-0.307 0.137,-0.28 0.137,-0.25C0.137,-0.22 0.144,-0.192 0.158,-0.168C0.173,-0.143 0.192,-0.124 0.216,-0.109C0.24,-0.095 0.266,-0.087 0.294,-0.087Z" style="fill:rgb(247,46,92);fill-rule:nonzero;"/>
                        </g>
                        <g transform="matrix(22,0,0,22,77.7308,39.4319)">
                            <path d="M0.45,-0.75L0.554,-0.75L0.554,-0L0.45,-0L0.45,-0.073C0.433,-0.048 0.412,-0.027 0.385,-0.011C0.359,0.005 0.328,0.013 0.293,0.013C0.257,0.013 0.223,0.006 0.191,-0.008C0.159,-0.021 0.131,-0.04 0.107,-0.064C0.083,-0.088 0.064,-0.116 0.051,-0.148C0.037,-0.18 0.03,-0.214 0.03,-0.25C0.03,-0.286 0.037,-0.32 0.051,-0.352C0.064,-0.384 0.083,-0.412 0.107,-0.436C0.131,-0.46 0.159,-0.479 0.191,-0.493C0.223,-0.506 0.257,-0.513 0.293,-0.513C0.328,-0.513 0.359,-0.505 0.385,-0.49C0.412,-0.474 0.433,-0.453 0.45,-0.427L0.45,-0.75ZM0.294,-0.087C0.323,-0.087 0.349,-0.095 0.371,-0.109C0.393,-0.124 0.41,-0.143 0.422,-0.168C0.435,-0.193 0.441,-0.22 0.441,-0.25C0.441,-0.28 0.434,-0.308 0.422,-0.333C0.41,-0.357 0.393,-0.377 0.371,-0.391C0.349,-0.406 0.323,-0.413 0.294,-0.413C0.265,-0.413 0.239,-0.406 0.215,-0.391C0.191,-0.377 0.172,-0.357 0.158,-0.332C0.144,-0.307 0.137,-0.28 0.137,-0.25C0.137,-0.22 0.144,-0.192 0.158,-0.168C0.173,-0.143 0.192,-0.124 0.216,-0.109C0.24,-0.095 0.266,-0.087 0.294,-0.087Z" style="fill:rgb(247,46,92);fill-rule:nonzero;"/>
                        </g>
                        <g transform="matrix(22,0,0,22,90.5181,39.4319)">
                            <path d="M0.44,-0.5L0.544,-0.5L0.544,0.013C0.544,0.047 0.537,0.079 0.523,0.108C0.508,0.137 0.489,0.162 0.464,0.183C0.439,0.204 0.411,0.221 0.379,0.233C0.348,0.244 0.314,0.25 0.28,0.25C0.245,0.25 0.211,0.243 0.179,0.228C0.146,0.213 0.118,0.193 0.093,0.167C0.069,0.142 0.051,0.114 0.039,0.082L0.134,0.038C0.141,0.059 0.151,0.078 0.166,0.094C0.181,0.11 0.199,0.122 0.218,0.131C0.238,0.141 0.259,0.145 0.28,0.145C0.3,0.145 0.32,0.142 0.339,0.136C0.358,0.129 0.376,0.12 0.391,0.108C0.406,0.097 0.418,0.083 0.427,0.067C0.436,0.05 0.44,0.032 0.44,0.013L0.44,-0.072C0.424,-0.046 0.403,-0.026 0.377,-0.01C0.352,0.005 0.322,0.013 0.288,0.013C0.253,0.013 0.219,0.006 0.188,-0.008C0.157,-0.021 0.129,-0.04 0.106,-0.064C0.082,-0.088 0.063,-0.116 0.05,-0.148C0.037,-0.18 0.03,-0.214 0.03,-0.25C0.03,-0.286 0.037,-0.32 0.05,-0.352C0.063,-0.384 0.082,-0.412 0.106,-0.436C0.129,-0.46 0.157,-0.479 0.188,-0.493C0.219,-0.506 0.253,-0.513 0.288,-0.513C0.322,-0.513 0.352,-0.506 0.377,-0.49C0.403,-0.475 0.424,-0.454 0.44,-0.429L0.44,-0.5ZM0.289,-0.087C0.318,-0.087 0.343,-0.095 0.365,-0.11C0.387,-0.125 0.403,-0.144 0.416,-0.169C0.428,-0.194 0.434,-0.221 0.434,-0.25C0.434,-0.28 0.428,-0.307 0.415,-0.332C0.403,-0.356 0.386,-0.376 0.364,-0.391C0.343,-0.406 0.318,-0.413 0.289,-0.413C0.261,-0.413 0.235,-0.406 0.212,-0.391C0.189,-0.377 0.171,-0.357 0.157,-0.332C0.143,-0.307 0.137,-0.28 0.137,-0.25C0.137,-0.22 0.143,-0.193 0.157,-0.168C0.171,-0.143 0.19,-0.124 0.213,-0.109C0.236,-0.095 0.261,-0.087 0.289,-0.087Z" style="fill:rgb(247,46,92);fill-rule:nonzero;"/>
                        </g>
                        <g transform="matrix(22,0,0,22,103.069,39.4319)">
                            <path d="M0.28,0.013C0.234,0.013 0.192,0.001 0.154,-0.023C0.116,-0.046 0.086,-0.078 0.064,-0.118C0.041,-0.158 0.03,-0.202 0.03,-0.25C0.03,-0.287 0.037,-0.321 0.05,-0.353C0.063,-0.385 0.08,-0.413 0.103,-0.437C0.126,-0.461 0.153,-0.48 0.183,-0.494C0.213,-0.507 0.246,-0.514 0.28,-0.514C0.318,-0.514 0.353,-0.506 0.385,-0.49C0.417,-0.474 0.445,-0.452 0.467,-0.425C0.49,-0.397 0.507,-0.365 0.517,-0.329C0.528,-0.292 0.531,-0.254 0.527,-0.214L0.141,-0.214C0.146,-0.191 0.154,-0.17 0.167,-0.151C0.179,-0.133 0.195,-0.118 0.215,-0.108C0.234,-0.097 0.256,-0.091 0.28,-0.091C0.305,-0.091 0.328,-0.097 0.349,-0.11C0.37,-0.123 0.387,-0.14 0.4,-0.163L0.506,-0.138C0.486,-0.094 0.456,-0.057 0.416,-0.029C0.375,-0.001 0.33,0.013 0.28,0.013ZM0.138,-0.293L0.422,-0.293C0.419,-0.317 0.41,-0.339 0.397,-0.358C0.383,-0.378 0.367,-0.393 0.346,-0.405C0.326,-0.416 0.304,-0.422 0.28,-0.422C0.256,-0.422 0.234,-0.417 0.214,-0.405C0.194,-0.394 0.177,-0.378 0.164,-0.359C0.151,-0.339 0.142,-0.317 0.138,-0.293Z" style="fill:rgb(247,46,92);fill-rule:nonzero;"/>
                        </g>
                        <g transform="matrix(22,0,0,22,114.446,39.4319)">
                            <path d="M0.324,-0.396L0.219,-0.396L0.219,-0L0.115,-0L0.115,-0.396L0.035,-0.396L0.035,-0.5L0.115,-0.5L0.115,-0.657L0.219,-0.657L0.219,-0.5L0.324,-0.5L0.324,-0.396Z" style="fill:rgb(247,46,92);fill-rule:nonzero;"/>
                        </g>
                        <g transform="matrix(22,0,0,22,122.223,39.4319)">
                        </g>
                    </g>
                </g>
            </g>
        </g>
    </g>
</svg>
